<?xml version="1.0" standalone="no"?>
<!DOCTYPE svg PUBLIC "-//W3C//DTD SVG 20010904//EN"
 "http://www.w3.org/TR/2001/REC-SVG-20010904/DTD/svg10.dtd">
<svg version="1.0" xmlns="http://www.w3.org/2000/svg"
 width="900.000000pt" height="512.000000pt" viewBox="0 0 900.000000 512.000000"
 preserveAspectRatio="xMidYMid meet">

<g transform="translate(0.000000,512.000000) scale(0.100000,-0.100000)"
fill="#000000" stroke="none">
<path d="M4425 5106 c-37 -17 -80 -62 -94 -99 -17 -45 -15 -1018 3 -1060 43
-104 195 -142 283 -70 76 61 73 38 73 600 0 329 -4 511 -11 530 -34 91 -161
140 -254 99z"/>
<path d="M5625 4771 c-16 -10 -40 -29 -51 -42 -18 -20 -464 -772 -503 -846
-15 -30 -14 -97 3 -137 18 -43 78 -92 130 -105 60 -15 130 4 168 46 9 10 129
209 267 442 244 413 251 426 251 478 0 79 -32 129 -107 167 -44 22 -121 21
-158 -3z"/>
<path d="M6455 3950 c-22 -11 -220 -130 -440 -263 -453 -274 -449 -271 -442
-379 4 -74 39 -128 102 -158 87 -42 91 -40 549 235 226 136 426 262 443 278
113 106 28 307 -129 307 -24 0 -61 -9 -83 -20z"/>
<path d="M5885 2721 c-48 -22 -69 -44 -90 -94 -28 -68 -9 -164 41 -209 53 -47
64 -48 587 -48 491 0 493 0 537 23 134 67 131 267 -4 328 -38 17 -75 19 -536
19 -459 0 -498 -2 -535 -19z"/>
<path d="M5719 2011 c-48 -15 -70 -33 -100 -79 -48 -76 -38 -173 23 -228 12
-12 214 -130 448 -263 l425 -243 60 4 c79 5 119 33 152 105 20 43 24 64 19 96
-14 89 -21 94 -468 349 -228 131 -431 244 -451 253 -39 16 -67 18 -108 6z"/>
<path d="M3205 1981 c-14 -6 -6 -8 26 -7 26 0 45 4 42 9 -5 9 -42 8 -68 -2z"/>
<path d="M3325 1952 c1 -9 -5 -26 -14 -36 -9 -11 -10 -16 -3 -12 15 9 17 -10
2 -19 -7 -4 -7 -11 -2 -18 5 -7 8 -20 7 -30 -2 -9 1 -14 7 -11 5 3 7 9 4 12
-3 3 1 13 10 23 10 11 12 19 5 24 -6 3 -11 11 -11 17 0 7 5 6 15 -2 12 -10 13
-8 10 10 -3 14 0 20 8 17 15 -5 16 -27 3 -47 -6 -8 -1 -6 12 4 l22 19 -22 25
c-34 35 -57 46 -53 24z m22 -20 c0 -10 -7 -19 -14 -19 -9 0 -10 4 -3 12 5 7 7
15 3 18 -3 4 -1 7 5 7 6 0 10 -8 9 -18z m-13 -63 c-3 -5 -10 -7 -15 -3 -5 3
-7 10 -3 15 3 5 10 7 15 3 5 -3 7 -10 3 -15z"/>
<path d="M3131 1941 c-11 -11 -22 -16 -26 -13 -4 4 -6 3 -5 -3 5 -23 -13 -53
-28 -50 -10 1 -16 8 -14 14 2 9 -3 9 -19 1 -15 -9 -18 -15 -9 -25 8 -9 8 -15
0 -20 -15 -9 -3 -24 17 -21 10 2 20 14 23 27 6 26 19 14 15 -14 -2 -9 1 -15 6
-11 5 3 7 9 4 14 -3 5 -1 11 4 14 5 3 7 16 4 29 -5 22 -5 22 10 2 8 -11 12
-24 9 -30 -9 -14 -12 -38 -4 -30 4 4 8 11 8 16 1 5 2 10 4 12 8 10 6 36 -2 31
-6 -4 -8 -1 -6 7 3 8 10 13 15 12 5 -1 10 4 10 12 0 8 -4 12 -9 9 -16 -10 -8
9 10 22 9 7 14 14 10 14 -5 0 -17 -9 -27 -19z m-73 -88 c2 -12 -3 -20 -12 -20
-11 0 -13 4 -6 12 6 7 5 16 -3 24 -10 11 -9 13 3 9 8 -3 16 -14 18 -25z"/>
<path d="M3075 1909 c-4 -6 -5 -12 -2 -15 2 -3 7 2 10 11 7 17 1 20 -8 4z"/>
<path d="M3384 1868 l-19 -23 23 19 c12 11 22 21 22 23 0 8 -8 2 -26 -19z"/>
<path d="M3003 1855 c0 -8 4 -12 9 -9 5 3 6 10 3 15 -9 13 -12 11 -12 -6z"/>
<path d="M3400 1855 c-11 -13 -10 -14 4 -9 9 3 16 10 16 15 0 13 -6 11 -20 -6z"/>
<path d="M3346 1843 c-6 -14 -5 -15 5 -6 7 7 10 15 7 18 -3 3 -9 -2 -12 -12z"/>
<path d="M3418 1810 c2 -16 6 -30 8 -30 2 0 4 14 4 30 0 17 -4 30 -8 30 -5 0
-7 -13 -4 -30z"/>
<path d="M2920 1811 c0 -7 -4 -10 -10 -6 -5 3 -18 -3 -29 -14 -11 -11 -23 -16
-28 -13 -4 4 -1 -2 8 -13 9 -11 15 -28 14 -38 -2 -9 0 -15 5 -12 9 6 8 24 -3
42 -8 13 20 46 33 38 10 -6 25 14 16 22 -3 4 -6 1 -6 -6z"/>
<path d="M2943 1813 c4 -3 1 -13 -6 -22 -11 -14 -10 -14 5 -2 16 12 16 31 1
31 -4 0 -3 -3 0 -7z"/>
<path d="M3211 1803 c-8 -14 -11 -15 -11 -3 -1 16 -50 -58 -50 -75 0 -5 5 -3
10 5 5 8 10 12 11 8 5 -27 4 -35 -5 -48 -8 -13 -8 -13 4 -2 8 7 16 22 16 33 3
36 4 40 13 34 6 -3 8 -14 6 -25 -2 -11 1 -22 6 -25 5 -4 7 -10 4 -15 -3 -5 -1
-11 4 -14 7 -5 8 22 1 32 -2 1 -3 10 -4 20 -1 9 -4 22 -8 27 -4 6 -4 15 0 21
8 11 34 13 30 3 -2 -4 4 -15 13 -25 9 -11 15 -32 14 -47 -2 -32 11 -45 28 -28
9 9 8 11 -4 6 -14 -5 -16 0 -14 24 1 17 -4 36 -11 42 -8 6 -12 15 -9 19 3 5 1
11 -4 15 -6 3 -7 13 -4 23 5 14 2 13 -11 -3 -15 -17 -17 -17 -12 -2 3 9 3 17
1 17 -2 0 -9 -8 -14 -17z m-25 -45 c-18 -26 -22 -17 -5 14 6 11 13 17 16 15 3
-3 -2 -16 -11 -29z"/>
<path d="M3264 1806 c1 -8 5 -18 8 -22 4 -3 5 1 4 10 -1 8 -5 18 -8 22 -4 3
-5 -1 -4 -10z"/>
<path d="M2980 1796 c15 -15 12 -30 -4 -17 -9 8 -16 8 -20 2 -4 -5 -2 -12 4
-16 5 -3 10 -11 10 -17 0 -6 -8 -3 -19 6 -17 16 -18 16 -18 -1 0 -46 -3 -58
-12 -45 -5 8 -7 26 -6 41 1 17 -3 28 -11 28 -7 0 -10 -5 -6 -11 3 -6 7 -20 8
-31 0 -12 6 -30 12 -40 10 -19 11 -18 17 7 4 17 12 25 23 23 9 -1 16 -8 14
-15 -1 -6 3 -8 9 -5 7 5 7 11 1 17 -11 11 -5 41 7 33 4 -2 7 9 7 24 0 17 -5
28 -13 28 -9 0 -10 -4 -3 -11z"/>
<path d="M3159 1793 c-13 -16 -12 -17 4 -4 9 7 17 15 17 17 0 8 -8 3 -21 -13z"/>
<path d="M3233 1732 c2 -12 6 -24 10 -28 3 -4 4 4 2 16 -6 30 -16 40 -12 12z"/>
<path d="M2890 1702 c0 -7 -4 -11 -8 -8 -5 3 -9 -1 -9 -9 0 -11 4 -12 14 -4
10 9 13 8 13 -1 0 -8 3 -11 6 -7 3 3 1 14 -5 24 -6 11 -11 13 -11 5z"/>
<path d="M2947 1695 c-4 -8 -3 -16 1 -19 4 -3 9 4 9 15 2 23 -3 25 -10 4z"/>
<path d="M2680 1676 c0 -2 7 -7 16 -10 8 -3 12 -2 9 4 -6 10 -25 14 -25 6z"/>
<path d="M2724 1645 c2 -30 20 -52 31 -36 3 7 1 10 -6 9 -8 -2 -13 6 -14 19 0
12 -3 24 -6 27 -3 4 -5 -5 -5 -19z"/>
<path d="M3074 1659 c-2 -4 -14 -6 -25 -4 -17 3 -19 1 -9 -10 7 -8 7 -15 1
-19 -5 -3 -11 -1 -13 5 -2 6 -9 -2 -16 -17 -12 -28 -12 -28 4 -9 16 20 16 20
12 -1 -3 -12 0 -21 7 -21 7 0 10 8 7 21 -5 18 -3 19 10 8 19 -15 16 -48 -3
-44 -9 2 -10 0 -1 -11 7 -8 11 -16 9 -18 -1 -2 0 -3 3 -1 3 2 6 8 6 13 1 5 2
10 4 12 7 9 6 38 -2 43 -5 4 2 18 16 33 20 21 23 28 11 28 -9 0 -18 -4 -21 -8z
m16 -2 c0 -2 -8 -11 -18 -20 -15 -14 -19 -15 -19 -2 0 8 4 12 8 9 4 -2 10 0
14 6 6 10 15 14 15 7z"/>
<path d="M3125 1653 c1 -10 0 -22 -4 -28 -9 -16 -10 -35 -1 -40 5 -3 7 3 5 12
-1 10 0 23 4 28 9 16 10 35 1 40 -5 3 -7 -3 -5 -12z"/>
<path d="M3325 1661 c3 -2 -3 -10 -13 -18 -12 -10 -8 -9 16 2 37 18 39 21 12
21 -10 0 -17 -2 -15 -5z"/>
<path d="M2753 1643 c0 -9 4 -10 14 -2 7 6 13 12 13 14 0 1 -6 2 -13 2 -8 0
-14 -6 -14 -14z"/>
<path d="M2836 1646 c5 -13 4 -17 -4 -12 -8 5 -10 1 -6 -11 5 -16 3 -15 -11 2
-12 14 -16 15 -14 5 3 -21 -11 -51 -22 -44 -5 3 -6 11 -2 17 10 16 13 41 5 32
-4 -4 -7 -10 -7 -13 0 -4 -4 -12 -8 -19 -4 -6 -3 -14 3 -18 5 -3 10 -11 10
-17 0 -6 -10 -3 -22 8 -13 12 -18 13 -13 4 5 -8 9 -26 8 -40 l-2 -25 8 25 c8
22 16 12 12 -13 -1 -5 3 -6 8 -2 6 3 7 13 4 23 -6 15 -5 15 11 3 15 -12 17
-12 14 0 -2 8 2 13 8 12 6 -1 10 8 10 20 -1 12 4 21 9 20 13 -2 14 41 2 53 -4
5 -5 0 -1 -10z m-23 -56 c-5 -19 -23 -39 -23 -25 0 9 20 45 24 45 2 0 2 -9 -1
-20z"/>
<path d="M3091 1626 c-9 -11 -9 -16 1 -22 7 -4 10 -4 6 1 -4 4 -3 14 3 22 6 7
9 13 6 13 -2 0 -10 -6 -16 -14z"/>
<path d="M2715 1593 c2 -10 4 -19 5 -20 2 -2 3 -12 4 -22 0 -11 4 -22 7 -25 5
-6 4 46 -1 52 -1 1 -3 6 -4 11 0 5 -4 12 -8 16 -3 4 -5 -1 -3 -12z"/>
<path d="M3093 1583 c4 -3 1 -13 -6 -22 -11 -14 -10 -14 5 -2 16 12 16 31 1
31 -4 0 -3 -3 0 -7z"/>
<path d="M2506 1567 c-17 -12 -17 -14 -1 -27 23 -19 42 -21 42 -4 0 10 -4 11
-12 4 -9 -7 -17 -5 -26 7 -12 14 -12 16 2 11 10 -4 16 -1 16 8 0 17 1 17 -21
1z"/>
<path d="M3023 1552 c2 -12 6 -24 10 -28 3 -4 4 4 2 16 -6 30 -16 40 -12 12z"/>
<path d="M3113 1558 c-13 -23 -11 -36 6 -33 9 2 19 4 24 4 4 1 7 9 7 19 -1 16
-1 16 -11 -1 -6 -9 -15 -15 -20 -11 -6 4 -6 11 2 20 6 8 9 14 6 14 -3 0 -9 -6
-14 -12z"/>
<path d="M2470 1546 c0 -2 8 -10 18 -17 15 -13 16 -12 3 4 -13 16 -21 21 -21
13z"/>
<path d="M2823 1535 c0 -8 4 -12 9 -9 5 3 6 10 3 15 -9 13 -12 11 -12 -6z"/>
<path d="M2446 1532 c-3 -5 1 -9 9 -9 8 0 12 4 9 9 -3 4 -7 8 -9 8 -2 0 -6 -4
-9 -8z"/>
<path d="M2911 1503 c-8 -14 -11 -15 -11 -3 0 12 -3 11 -11 -3 -6 -9 -14 -15
-18 -13 -4 3 -8 0 -9 -7 0 -7 -3 -22 -5 -34 -3 -12 1 -27 9 -34 11 -9 12 -15
3 -25 -8 -10 -8 -14 0 -14 6 0 11 5 11 11 0 5 4 8 9 4 19 -11 23 17 5 33 -17
16 -17 16 -5 -1 19 -24 8 -31 -13 -8 -14 15 -14 20 -2 30 11 9 18 7 34 -14 21
-26 21 -26 41 -6 10 10 23 16 27 13 4 -4 4 -2 0 5 -3 6 -2 14 4 18 5 3 10 1
10 -6 0 -7 3 -9 6 -6 4 4 2 13 -4 20 -7 8 -11 16 -9 18 1 2 0 3 -3 1 -3 -2 -5
-7 -5 -10 -1 -13 -30 -52 -39 -52 -18 0 -45 32 -39 46 3 8 9 11 14 8 5 -3 7
-9 4 -14 -3 -4 3 -14 12 -21 15 -12 16 -12 8 1 -15 24 -14 38 1 51 8 6 14 16
14 22 0 6 -7 2 -16 -9 -13 -16 -15 -16 -10 -1 3 9 3 17 1 17 -2 0 -9 -8 -14
-17z m-21 -32 c-5 -11 -15 -23 -22 -27 -7 -5 -8 -2 -3 7 21 37 44 55 25 20z"/>
<path d="M2579 1508 c-4 -10 -4 -77 0 -72 6 5 10 74 4 74 -2 0 -3 -1 -4 -2z"/>
<path d="M2680 1505 c1 -5 2 -17 1 -25 -1 -13 -2 -13 -12 0 -8 11 -9 9 -3 -10
6 -22 5 -23 -9 -11 -9 7 -15 17 -12 20 2 4 -2 8 -10 8 -10 0 -12 -4 -5 -12 5
-7 6 -15 2 -19 -7 -7 -8 -11 -11 -37 0 -5 -6 -7 -11 -4 -6 4 -7 11 -4 17 5 7
2 8 -5 4 -9 -6 -9 -12 2 -24 8 -10 13 -23 11 -30 -1 -7 0 -8 3 -2 2 5 9 8 14
4 5 -3 8 0 7 8 -2 7 3 12 10 11 6 -2 11 1 10 6 -2 5 2 9 7 10 6 1 10 -7 10
-16 -1 -10 -7 -17 -14 -15 -7 1 -10 -2 -6 -8 5 -8 11 -8 20 0 13 11 14 34 2
46 -15 15 -6 26 11 13 14 -11 15 -11 5 1 -15 16 -17 34 -5 26 11 -6 9 31 -2
41 -4 5 -7 4 -6 -2z m-38 -87 c-12 -12 -22 -20 -22 -16 0 4 7 14 16 22 9 9 11
16 4 16 -6 0 -8 5 -4 11 4 8 9 8 17 0 8 -8 5 -17 -11 -33z"/>
<path d="M2953 1488 c-11 -19 -13 -39 -1 -32 5 3 7 9 4 12 -3 3 -1 11 5 19 6
7 9 13 6 13 -3 0 -9 -6 -14 -12z"/>
<path d="M2375 1473 c1 -10 0 -22 -3 -28 -8 -13 -11 -57 -3 -49 3 3 7 14 7 25
1 10 2 20 4 22 7 8 7 38 0 42 -5 3 -7 -3 -5 -12z"/>
<path d="M2603 1471 c0 -11 5 -18 9 -15 4 3 5 11 1 19 -7 21 -12 19 -10 -4z"/>
<path d="M2327 1450 c-28 -32 -42 -68 -33 -77 3 -4 6 1 6 11 0 10 5 14 12 10
6 -4 8 -3 5 4 -9 13 2 44 13 37 5 -3 7 -14 5 -25 -2 -10 4 -25 13 -32 15 -11
15 -11 6 2 -8 12 -12 54 -4 63 3 4 8 37 5 37 -2 0 -15 -13 -28 -30z"/>
<path d="M3666 1457 c-29 -16 -53 -46 -98 -120 -32 -54 -55 -103 -52 -109 4
-6 3 -8 -2 -5 -9 5 -149 -223 -326 -532 -87 -151 -95 -188 -58 -261 31 -61 89
-95 164 -95 102 0 109 7 289 318 54 92 95 172 91 179 -4 6 -3 8 4 5 13 -9 125
180 116 195 -4 6 -3 8 3 5 14 -9 135 201 140 244 19 142 -145 249 -271 176z
m65 -1 c-8 -10 -9 -16 -1 -21 5 -3 10 -1 10 6 0 7 3 9 7 6 3 -4 -2 -15 -11
-26 -10 -11 -13 -22 -8 -25 6 -3 13 0 15 6 4 8 6 9 6 2 1 -6 -6 -17 -15 -24
-8 -8 -14 -9 -13 -4 4 23 -2 26 -17 8 -14 -18 -14 -17 -2 6 16 32 17 42 4 59
-8 11 -8 13 1 8 6 -4 14 -3 18 3 3 5 9 10 12 10 3 0 0 -6 -6 -14z m-31 -30 c0
-8 -9 -24 -20 -37 -11 -13 -19 -19 -18 -12 2 6 -1 10 -7 10 -5 -1 -9 -5 -8 -8
1 -3 -5 -6 -12 -6 -10 0 -12 4 -5 12 5 7 6 15 2 19 -4 4 0 6 8 4 8 -1 14 2 13
8 -1 6 5 11 12 11 11 0 12 -4 4 -13 -6 -8 -6 -14 0 -18 12 -8 25 30 15 45 -4
8 -3 9 4 5 7 -4 12 -13 12 -20z m119 -63 c14 10 14 10 5 -3 -13 -16 -9 -59 6
-74 6 -6 8 4 6 26 -2 20 0 42 5 49 5 8 9 10 10 4 0 -5 2 -18 4 -27 2 -10 -1
-20 -6 -24 -5 -3 -4 -14 2 -26 8 -15 8 -19 0 -13 -8 4 -10 -2 -7 -20 3 -15 3
-25 0 -22 -3 3 -6 9 -6 14 0 4 -4 16 -10 26 -7 14 -12 16 -24 7 -7 -7 -11 -17
-8 -22 4 -6 10 -5 16 3 8 11 9 10 5 -2 -3 -9 -1 -21 4 -26 6 -6 4 -10 -5 -10
-8 0 -15 3 -14 6 2 21 -4 22 -18 5 -14 -18 -15 -18 -4 4 6 12 8 22 5 22 -3 0
-8 0 -12 0 -5 0 -8 -4 -8 -9 0 -5 -3 -12 -7 -16 -3 -4 -5 0 -4 9 1 8 5 19 9
22 10 10 9 26 -1 20 -4 -2 -8 4 -8 14 0 11 2 17 5 15 2 -3 13 2 23 11 14 14
16 20 6 33 -10 13 -10 14 2 4 11 -10 17 -10 29 0z m78 -8 c4 -4 2 -5 -4 -1 -7
4 -13 3 -13 -1 0 -5 6 -15 13 -22 10 -11 10 -13 0 -7 -7 4 -13 5 -13 2 0 -2
-3 -13 -7 -23 -6 -16 -5 -17 13 -3 18 14 18 14 5 -3 -18 -23 -37 -7 -23 19 6
11 7 25 1 35 -6 13 -5 17 6 15 8 -1 18 -6 22 -11z m-300 -42 c0 -9 -4 -10 -14
-2 -7 6 -13 12 -13 14 0 1 6 2 13 2 8 0 14 -6 14 -14z m-20 -34 c-3 -10 -1
-22 4 -25 5 -3 9 0 9 7 0 7 3 10 6 6 3 -3 -2 -16 -11 -29 -11 -14 -15 -16 -12
-6 4 10 2 20 -3 23 -9 5 -14 -6 -12 -26 1 -3 -5 -6 -12 -6 -7 0 -13 6 -13 13
0 7 5 10 10 7 6 -4 8 0 4 10 -4 10 -2 16 6 14 7 -1 12 8 11 20 0 12 4 19 9 16
5 -3 7 -14 4 -24z m319 -51 c3 -4 -1 -5 -10 -4 -8 1 -18 5 -22 8 -3 4 1 5 10
4 8 -1 18 -5 22 -8z m-285 -15 c13 -16 12 -17 -3 -4 -10 7 -18 15 -18 17 0 8
8 3 21 -13z m54 -2 c-3 -5 -1 -12 5 -16 6 -4 7 -12 3 -18 -4 -7 -8 -28 -9 -47
-1 -19 -3 -37 -4 -40 -1 -3 -2 -8 -1 -12 1 -10 -25 -3 -43 11 -9 7 -16 19 -15
25 0 7 2 6 6 -2 2 -6 9 -9 15 -6 5 4 3 13 -6 23 -11 12 -12 20 -5 31 9 13 10
12 5 -2 -3 -10 -1 -20 4 -23 12 -8 19 17 9 37 -6 10 -5 19 1 23 6 4 10 3 9 -2
-1 -4 -1 -14 0 -22 1 -20 16 -4 17 20 2 26 3 29 10 29 3 0 3 -4 -1 -9z m29
-44 c-6 -19 -5 -20 9 -9 15 13 17 28 5 48 -4 6 3 10 16 10 12 0 23 -6 23 -12
0 -7 -3 -12 -6 -11 -3 1 -6 -2 -6 -8 0 -5 4 -9 8 -7 4 1 0 -12 -8 -29 -13 -25
-19 -28 -31 -18 -16 13 -19 -1 -4 -19 6 -6 7 -10 4 -7 -4 3 -13 -3 -21 -13
-13 -16 -13 -15 -5 3 4 11 8 44 7 73 -1 34 2 47 8 37 4 -8 5 -25 1 -38z m53
-81 c0 -15 -21 -16 -34 -1 -4 4 -3 5 4 1 6 -3 14 -2 18 4 8 14 12 13 12 -4z
m-240 -39 c-9 -15 -12 -29 -7 -37 5 -8 4 -22 -1 -31 -16 -30 -10 -35 11 -9 13
17 16 28 9 37 -7 8 -5 21 6 40 15 26 15 23 -1 -24 -5 -15 -3 -15 10 1 9 11 16
15 16 9 0 -7 -5 -15 -10 -18 -6 -4 -7 -11 -4 -17 4 -6 12 -1 20 13 9 17 9 28
2 37 -6 7 -8 15 -4 19 3 3 6 0 6 -8 0 -12 2 -11 11 1 9 13 10 12 5 -2 -6 -20
10 -34 18 -16 2 7 3 2 1 -12 -2 -14 -4 -26 -6 -27 -1 -2 -2 -7 -3 -12 0 -5 -4
-12 -8 -16 -8 -9 -5 16 5 32 4 6 3 14 -2 17 -11 7 -26 -31 -22 -54 2 -11 -1
-10 -11 4 -14 17 -15 17 -30 -7 -11 -16 -13 -28 -7 -34 6 -6 4 -10 -5 -10 -8
0 -14 3 -14 6 3 14 -15 40 -24 35 -5 -3 -4 -11 3 -20 6 -8 9 -14 5 -14 -3 0
-9 0 -13 0 -11 -1 -12 29 -2 36 6 4 6 10 0 18 -8 9 -5 18 9 31 11 10 17 22 13
28 -3 5 -1 7 4 4 6 -4 13 0 17 8 3 8 8 15 12 15 3 0 -1 -10 -9 -23z m297 14
c-3 -4 -11 -6 -17 -6 -7 0 -12 -7 -13 -15 -1 -8 -2 -18 -4 -22 -1 -5 -3 -12
-4 -17 -3 -21 -12 -18 -12 4 0 13 4 21 8 19 4 -3 8 -1 8 5 0 5 -5 13 -10 16
-16 10 -4 21 24 21 14 0 23 -2 20 -5z m-261 -104 c3 -8 -1 -14 -8 -14 -7 0
-11 6 -8 14 3 7 6 13 8 13 2 0 5 -6 8 -13z m35 -9 c-2 -7 3 -12 10 -10 8 1 11
-2 7 -8 -5 -8 -11 -8 -21 1 -7 6 -11 15 -8 20 8 13 14 11 12 -3z m-200 -50 c5
-73 8 -94 15 -105 4 -6 2 -15 -4 -19 -7 -4 -9 -3 -6 3 4 6 0 16 -8 23 -10 8
-11 18 -5 34 11 30 -6 62 -26 45 -7 -6 -11 -16 -8 -21 4 -6 10 -5 15 3 6 9 7
2 4 -20 -3 -18 -1 -39 5 -46 7 -9 7 -15 1 -19 -13 -8 -19 4 -17 37 1 15 -5 33
-13 40 -12 10 -14 9 -9 -4 4 -9 1 -16 -7 -16 -11 0 -12 5 -2 21 6 12 10 24 9
29 -1 4 4 6 11 5 6 -2 11 3 9 10 -1 8 2 11 7 8 5 -4 12 -2 16 4 9 14 11 13 13
-12z m48 -35 c-3 -3 -1 -15 5 -27 9 -19 9 -19 -4 -4 -8 10 -17 15 -20 11 -4
-3 -2 -12 4 -19 7 -8 6 -14 -2 -20 -7 -4 -9 -3 -5 4 3 6 2 14 -4 17 -8 5 -8
11 0 20 6 8 7 16 2 19 -5 3 -9 17 -9 31 l0 25 19 -26 c11 -14 18 -28 14 -31z
m20 34 c3 -21 1 -21 -20 2 -17 19 -17 19 0 17 9 -2 18 -10 20 -19z m261 6 c0
-9 -4 -10 -11 -3 -16 16 -30 12 -16 -6 8 -8 9 -14 3 -12 -6 2 -26 -15 -45 -36
-23 -26 -35 -34 -35 -23 0 9 3 15 6 14 3 -1 6 3 6 8 0 6 -3 9 -6 8 -3 -1 -6 4
-6 12 0 8 4 12 8 9 4 -2 9 -1 12 3 2 5 2 3 1 -4 -4 -17 13 -26 19 -11 8 22
-13 51 -27 39 -9 -8 -13 -7 -13 2 0 9 17 13 52 13 37 0 52 -4 52 -13z m-379
-106 c-1 -13 -7 -24 -13 -24 -8 0 -9 7 -1 24 14 29 16 29 14 0z m99 -12 c0 -8
-4 -12 -9 -9 -5 3 -6 10 -3 15 9 13 12 11 12 -6z m216 0 c-3 -9 -8 -14 -10
-11 -3 3 -2 9 2 15 9 16 15 13 8 -4z m-92 -18 c-6 -8 -7 -18 -3 -22 4 -5 2 -5
-5 -1 -6 3 -16 -2 -22 -11 -6 -10 -11 -13 -11 -7 0 5 5 15 12 22 9 9 9 12 0
12 -17 0 -33 -35 -21 -47 6 -6 5 -10 -5 -10 -8 0 -13 4 -10 8 2 4 0 10 -6 14
-5 3 -10 12 -10 18 0 8 3 8 9 -1 7 -11 9 -11 14 2 3 8 1 17 -6 20 -7 2 3 3 21
2 18 -2 35 0 38 5 3 5 8 9 11 9 3 0 0 -6 -6 -13z m-254 -11 c4 -4 2 -6 -6 -4
-7 2 -16 -3 -19 -11 -2 -8 0 -11 6 -7 16 9 26 -14 13 -27 -9 -9 -10 -7 -5 8 7
17 5 18 -7 8 -9 -7 -14 -26 -13 -43 1 -16 -2 -28 -6 -25 -4 3 -6 14 -3 24 8
32 -14 33 -36 2 -13 -18 -17 -32 -11 -36 5 -3 10 -2 10 2 0 5 7 18 15 29 14
17 14 16 1 -13 -14 -28 -41 -57 -34 -36 2 4 -1 8 -7 8 -5 0 -9 -4 -7 -8 1 -5
-2 -5 -8 -2 -8 5 -6 13 4 24 9 10 13 21 9 26 -5 4 -2 5 5 1 11 -6 17 5 13 27
0 4 5 6 12 5 6 -2 12 7 12 19 0 12 4 26 9 30 4 4 7 4 6 -2 -5 -22 0 -46 9 -41
4 3 7 16 6 30 -3 23 14 30 32 12z m278 -5 c3 -5 2 -12 -3 -15 -5 -3 -9 1 -9 9
0 17 3 19 12 6z m22 -20 c-2 -10 -8 -26 -15 -33 -6 -8 -8 -19 -4 -23 4 -5 1
-4 -7 0 -11 6 -13 4 -8 -9 4 -10 3 -15 -3 -11 -6 4 -15 -4 -20 -17 -8 -19 -9
-20 -8 -3 2 11 -2 21 -7 22 -6 1 -10 -6 -9 -16 1 -10 -4 -18 -10 -18 -7 0 -12
11 -12 23 0 12 4 20 8 18 5 -3 11 2 14 11 6 14 8 14 21 -2 13 -17 14 -16 9 7
-3 14 -3 19 0 12 8 -18 24 -4 18 16 -5 14 -4 15 5 2 6 -8 11 -12 12 -7 1 4 3
12 4 17 1 6 3 15 4 20 0 6 3 10 6 10 3 0 4 -9 2 -19z m-131 -24 c2 -14 1 -28
-3 -30 -5 -3 -9 10 -9 29 -2 39 5 39 12 1z m84 19 c0 -2 -8 -10 -17 -17 -16
-13 -17 -12 -4 4 13 16 21 21 21 13z m-295 -85 c3 -5 2 -12 -3 -15 -5 -3 -9 1
-9 9 0 17 3 19 12 6z m222 -6 c0 -8 -4 -12 -9 -9 -5 3 -6 10 -3 15 9 13 12 11
12 -6z m-123 -19 c22 1 36 0 30 -4 -5 -4 -9 -17 -8 -30 1 -22 1 -22 -19 -5
-18 16 -20 16 -14 1 3 -9 -1 -22 -8 -28 -8 -7 -12 -17 -8 -24 4 -6 -1 -5 -10
3 -9 7 -17 19 -17 25 0 6 5 4 10 -4 5 -8 10 -13 11 -10 2 15 7 36 10 47 2 6 0
11 -6 12 -5 1 -10 -3 -10 -8 0 -5 -3 -12 -7 -16 -3 -4 -5 1 -4 12 2 10 -2 25
-8 33 -9 12 -8 13 4 4 8 -6 33 -10 54 -8z m92 -57 c1 -16 -2 -32 -7 -35 -5 -3
-9 -10 -9 -15 0 -6 4 -8 9 -5 5 4 8 -2 7 -11 -3 -17 -15 -21 -17 -5 0 4 -10
23 -21 42 -17 31 -18 32 -1 12 10 -13 22 -20 26 -16 11 11 8 26 -3 19 -6 -4
-7 1 -3 11 4 10 2 15 -4 11 -5 -3 -10 0 -10 8 0 12 3 12 16 2 12 -10 14 -9 7
8 -4 11 -4 16 1 12 4 -5 8 -22 9 -38z m-40 -73 c2 -11 0 -15 -3 -8 -4 10 -8
10 -19 1 -16 -13 -15 -14 -18 23 -2 16 1 25 7 21 6 -4 8 1 4 13 -5 14 -2 13
10 -5 10 -13 18 -33 19 -45z m-60 10 c0 -23 -16 -29 -33 -12 -4 4 -1 6 7 4 8
-1 15 3 16 10 4 31 10 30 10 -2z m-201 -5 c3 -5 2 -12 -3 -15 -5 -3 -9 1 -9 9
0 17 3 19 12 6z m112 -38 c0 -9 -4 -10 -11 -3 -17 17 -29 11 -15 -7 13 -17 13
-17 -7 0 -32 27 -40 20 -13 -10 22 -25 22 -26 2 -9 -27 23 -30 11 -6 -18 10
-12 11 -15 3 -9 -11 10 -17 10 -29 0 -13 -10 -14 -10 -6 3 13 19 13 51 0 47
-6 -1 -9 -10 -9 -20 1 -10 -1 -15 -4 -12 -4 3 -7 16 -7 28 -2 21 3 23 50 23
37 0 52 -4 52 -13z m22 -30 c-3 -30 1 -39 10 -24 6 9 8 5 8 -16 -1 -23 -6 -29
-23 -29 -18 0 -26 19 -14 34 4 3 7 20 9 37 0 8 4 15 7 15 3 0 4 -8 3 -17z
m-38 -41 c-6 -11 -7 -22 -4 -26 3 -3 4 -6 1 -6 -3 0 -12 8 -19 17 -8 9 -9 14
-2 10 7 -4 14 1 18 14 4 11 9 18 12 16 2 -3 0 -14 -6 -25z"/>
<path d="M3786 1321 c-20 -22 -12 -58 10 -40 7 6 13 22 12 35 -3 29 -1 28 -22
5z"/>
<path d="M3641 1142 c-7 -13 -6 -23 2 -32 9 -10 9 -11 0 -6 -14 8 -28 -10 -14
-18 13 -8 25 13 27 46 3 33 -1 35 -15 10z"/>
<path d="M3711 1156 c-7 -8 -8 -17 -3 -20 6 -3 13 1 16 10 9 23 2 28 -13 10z"/>
<path d="M3471 1007 c-9 -11 -8 -17 3 -26 10 -9 15 -8 19 2 9 23 -8 41 -22 24z"/>
<path d="M3400 881 c0 -5 5 -13 10 -16 6 -3 10 -2 10 4 0 5 -4 13 -10 16 -5 3
-10 2 -10 -4z"/>
<path d="M3646 895 c4 -8 10 -12 15 -9 11 6 2 24 -11 24 -5 0 -7 -7 -4 -15z"/>
<path d="M3350 595 c7 -9 15 -13 17 -11 7 7 -7 26 -19 26 -6 0 -6 -6 2 -15z"/>
<path d="M3379 518 c0 -2 -2 -11 -4 -21 -3 -15 -1 -16 11 -6 7 6 11 15 8 20
-5 9 -13 12 -15 7z"/>
<path d="M3266 381 c-4 -5 -2 -12 3 -15 5 -4 12 -2 15 3 4 5 2 12 -3 15 -5 4
-12 2 -15 -3z"/>
<path d="M5129 1441 c-55 -34 -81 -84 -81 -153 1 -46 18 -78 243 -471 133
-232 251 -433 263 -445 33 -37 70 -52 126 -52 90 0 159 50 181 132 19 73 36
39 -311 643 -94 165 -182 311 -193 323 -56 61 -153 71 -228 23z"/>
<path d="M2573 1405 c0 -8 4 -12 8 -9 4 2 10 -4 12 -13 4 -15 5 -15 6 -2 0 9
-5 22 -12 28 -10 8 -14 7 -14 -4z"/>
<path d="M2381 1387 c-8 -10 -7 -14 2 -14 8 0 14 6 14 14 0 7 -1 13 -2 13 -2
0 -8 -6 -14 -13z"/>
<path d="M2416 1360 c6 -8 10 -27 9 -42 -1 -15 2 -25 6 -23 4 3 6 13 4 23 -1
9 2 24 8 32 6 8 7 12 3 8 -5 -4 -16 -2 -25 5 -14 10 -14 10 -5 -3z"/>
<path d="M2741 1362 c4 -23 -2 -42 -11 -37 -6 4 -8 10 -5 15 3 5 1 11 -4 14
-5 4 -8 -2 -6 -11 1 -10 -3 -24 -9 -32 -8 -11 -8 -13 2 -7 18 11 15 -4 -5 -28
-16 -17 -13 -17 22 4 74 44 85 52 84 64 0 7 -2 6 -6 -1 -2 -7 -9 -13 -14 -13
-6 0 -5 9 1 23 11 21 10 21 -4 3 -9 -11 -16 -15 -16 -9 0 6 -7 13 -15 17 -8 3
-14 2 -14 -2z m33 -43 c-3 -5 -9 -7 -14 -4 -4 3 -10 -1 -13 -7 -3 -10 -8 -10
-18 1 -11 10 -11 12 -1 6 9 -4 15 0 19 14 4 17 8 19 19 10 8 -6 11 -15 8 -20z"/>
<path d="M2816 1357 c3 -10 9 -15 12 -12 3 3 0 11 -7 18 -10 9 -11 8 -5 -6z"/>
<path d="M2535 1340 c-4 -6 -11 -8 -16 -4 -5 3 -9 2 -8 -3 3 -20 -2 -34 -11
-28 -5 3 -6 13 -3 23 3 9 3 14 -1 11 -4 -4 -8 -16 -11 -28 -6 -30 -15 -42 -26
-35 -6 4 -6 11 2 20 6 8 8 14 4 14 -4 0 -2 6 4 13 8 10 7 14 -3 14 -8 0 -13
-7 -11 -16 1 -9 -2 -21 -7 -28 -5 -7 -5 -14 1 -17 7 -4 7 -15 1 -30 -7 -19 -6
-24 7 -22 8 2 21 12 27 25 7 12 15 19 19 15 3 -4 9 1 13 10 3 9 11 13 18 9 6
-3 6 -1 -1 8 -17 17 -17 34 0 21 10 -9 13 -6 13 13 0 28 -2 30 -11 15z m-22
-57 c-3 -7 -9 -11 -14 -8 -4 3 -15 -7 -23 -22 -8 -15 -15 -22 -16 -15 0 18 32
59 46 59 7 0 10 -6 7 -14z"/>
<path d="M2424 1263 c2 -10 -2 -25 -8 -33 -9 -13 -9 -13 6 -2 16 12 18 35 6
48 -4 3 -5 -2 -4 -13z"/>
<path d="M4435 1265 c-49 -17 -90 -62 -104 -112 -7 -24 -11 -213 -11 -523 0
-484 0 -486 23 -530 26 -53 72 -87 131 -95 92 -14 182 39 205 120 7 27 11 203
11 525 0 449 -2 488 -19 525 -41 90 -135 126 -236 90z"/>
<path d="M2529 1268 c-6 -20 -6 -39 0 -42 4 -3 7 6 7 20 0 20 -4 32 -7 22z"/>
<path d="M2495 1241 c-3 -5 -2 -12 3 -15 5 -3 9 1 9 9 0 17 -3 19 -12 6z"/>
<path d="M2345 1202 c33 -40 50 -44 52 -14 1 23 0 24 -9 8 -9 -17 -12 -16 -36
6 l-27 23 20 -23z"/>
<path d="M2595 1210 c-3 -6 1 -7 9 -4 18 7 21 14 7 14 -6 0 -13 -4 -16 -10z"/>
<path d="M2562 1194 c-7 -8 -8 -14 -3 -14 10 0 25 19 20 25 -2 1 -10 -3 -17
-11z"/>
</g>
</svg>
